<svg xmlns="http://www.w3.org/2000/svg" viewBox="0 0 696.122 575.416">
  <path d="M198.775 575.368c-17.681-18.393-34.338-37.858-49.333-57.13-45.744-58.74-83.181-123.932-113.867-192.666-13.107-30.27-27.711-69.063-32.2-97.338-9.595-50.212.848-106.815 36.733-144.813 9.975-11.816 21.424-20.768 34.804-30.45 35.085-22.603 76.573-41.018 117.196-36.066 7.201.958 18.509 1.403 23.715 2.867 27.666 4.641 62.749 17.273 86.417 34.733 14.21 6.402 24.455 27.48 43.202 25.733 11.243-10.333 24.345-26.49 37.333-38 22.685-20.164 51.768-32.76 80.09-37.466 7.202-1.259 15.294-3.165 19.882-3.99 4.687-.94 37.102-.214 41.999 1.092 11.3 2.478 12.122 3.01 19.695 5.034 32.523 7.073 65.202 26.056 90.233 49.985 25.645 25.25 44.752 56.81 54.822 89.145 3.461 11.43 5.674 24.98 6.612 34.872.116 14.673-.472 22.687-4.055 36.042-13.682 47.907-44.975 87.904-77.931 125.729-23.215 25.69-47.4 51.962-72.185 76.224 1.497-8.854 11.848-18.913 16.838-27.578 29.502-46.256 56.97-95.232 75.231-147.089 6.515-20.1 13.107-43.74 14.775-64 3.653-32.076-2.276-69.483-25.954-93.4-15.725-16.096-35.747-26.958-55.519-36.858-4.06-2.199-16.493-7.543-22.273-9.465-16.817-4.031-32.917-8.288-48.927-6.277-32.688 1.727-61.86 23.733-80.733 49.952-20.33 25.326-33.01 55.773-54.165 80.382-9.504 11.498-29.681 8.416-36.502-5.619-3.826-1.96-9.901-15.09-13.933-22.293-25.71-46.95-74.235-88.052-130.28-82.277-38.173 2.15-72.545 26.726-98.387 55.189-22.945 22.244-35.516 53.588-37.333 84.424-2.09 18.15 1.25 36.975 4.067 52.905 6.419 35.358 21.537 70.793 35.454 104.87 4.962 8.88 11.737 23.98 16.545 33.753 8.717 17.31 16.695 33.68 25.2 49.43 23.575 45.02 48.423 90.404 72.733 136.745.904.754 2.687 4.155 0 3.67z" fill="#CF1F26"/>
  <g fill="#282A76">
    <path d="M458.908 532.067c-31.008-7.501-60.052-23.71-90.8-24.805-18.29.23-36.027-3.855-53.082-.624-11.403-.243-28.654 1.328-40.985 8.212-18.276 9.902-43.78 25.215-62.666 8.023-10.221-6.444-24.298-23.437-21.934-38.635 9.388-25.856 36.248-39.22 58.178-54.666 17.166-11.033 35.361-24.883 38.422-46.875-.383-8.682 7.778-26.321 21.844-25.725 23.7-4.407 55.731-5.566 81.604 1.2 13.32 7.912 4.238 26.737 12.619 38.066 8.917 23.354 32.196 41.168 53.8 54.718 15.66 10.804 36.847 20.795 42.867 39.6 3.592 21.912-14.654 48.166-39.867 41.51zM475.85 392.705c-20.354-5.453-26.83-31.65-26.358-50.257-.03-23.862 7.585-52.28 30.568-64.276 25.78-8.632 39.702 23.732 38.702 43.998.79 17.623-.919 28.015-6.852 43.285-6.188 13.112-17.9 30.323-36.06 27.25zM196.442 384.062c-24.359-9.417-32.846-39.11-34.778-62.024-1.064-18.428 3.706-40.504 21.11-49.8 22.213-4.385 36.69 23.955 40.63 36.267 6.695 22.605 9.533 58.06-13.962 73.748-4.34 2.244-7.677 2.3-13 1.809zM299.713 307.908c-10.432-2.135-15.841-7.767-21.466-14.336-14.08-19.91-18.512-44.506-16.14-66.667.892-16.185 12.82-43.04 32.668-39.333 26.432 8.336 35.391 40.27 37.032 64.589 1.07 21.69-4.915 57.386-32.094 55.747zM393.189 295.654c-13.9-3.245-20.537-20.255-22.474-32.816-2.59-22.02-.467-39.929 8.1-57.85 5.025-14.155 24.11-33.859 41.243-20.033 16.447 16.945 16.893 45.272 12.717 64.617-4.606 18.997-14.458 48.227-39.586 46.082z"/>
  </g>
</svg>
